# xmcd CD database file
#
# Track frame offsets:
#	150
#	2313
#	23348
#	53645
#	75658
#	136128
#	170736
#	193551
#	220255
#
# Disc length: 4564 seconds
#
# Revision: 0
# Processed by: cddbd v1.5.2PL0 Copyright (c) Steve Scherf et al.
# Submitted via: CDex 1.79
#
DISCID=6311d209
DTITLE=Henrik Freischlader - Live in Concerts CD1 Show No.47
DYEAR=2013
DGENRE=Blues
TTITLE0=Intro
TTITLE1=The Blues
TTITLE2=Still Frame Replay
TTITLE3=Longer Days
TTITLE4=The Bridge
TTITLE5=I Loved Another Woman
TTITLE6=Come On my Love
TTITLE7=What's My Name
TTITLE8=Bad Dreams (Wolkenwinde)
EXTD=YEAR: 2013
EXTT0=
EXTT1=
EXTT2=
EXTT3=
EXTT4=
EXTT5=
EXTT6=
EXTT7=
EXTT8=
PLAYORDER=
